<?xml version="1.0"?>
<svg version="1.1" xmlns="http://www.w3.org/2000/svg" width="400" height="200" style="border: dashed 2px #aaa"><path fill="#ed1520" d="M15.69,141.4l0-5.865l4.278-1.725l13.938-16.836l-12.834-16.698l-4.002-1.311l0-5.865l20.7-0.345l0,6.21l-3.45,1.173l7.107,9.453l6.762-9.177l-3.726-1.449l0-5.865l19.872-0.345l0,6.21l-4.554,1.38l-12.696,16.077l13.455,17.457l4.83,1.656l0,5.865l-21.39,0l0-5.865l3.174-1.38l-7.59-10.212l-7.728,9.936l4.347,1.656l0,5.865l-20.493,0z M94.31619,118.285l0,8.625l-19.665,0l0-8.625l19.665,0z M105.32238,141.4l0-5.865l5.175-2.07l0-32.43l-5.175-2.07l0-5.865l15.87-0.345l6.555,0c10.557,0,16.767,5.52,16.767,14.49c0,11.592-7.107,17.25-19.665,17.25l-3.657,0l0,8.97l5.175,2.07l0,5.865l-21.045,0z M121.19238,116.422l3.657,0c5.727,0,8.97-2.691,8.97-7.797c0-4.485-2.415-7.59-7.107-7.59l-5.52,0l0,15.387z M153.10557,141.4l0-5.865l5.175-2.07l0-32.43l-5.175-2.07l0-5.865l15.87-0.345l5.244,0c11.316,0,17.94,4.692,17.94,14.076c0,6.486-3.105,10.695-7.797,13.041c0.759,0.897,1.794,2.208,2.898,4.485l4.623,9.453l4.692,1.725l0,5.865l-12.765,0l-5.796-12.765c-2.346-5.244-2.967-6.348-6.624-6.348l-2.415,0l0,11.178l4.968,2.07l0,5.865l-20.838,0z M168.97557,115.042l3.933,0c5.451,0,8.625-2.622,8.625-7.245c0-3.933-2.622-6.762-6.9-6.762l-5.658,0l0,14.007z M228.62676,91.927c13.8,0,21.735,9.108,21.735,24.495c0,15.525-9.315,25.875-23.115,25.875s-21.39-8.625-21.39-24.84c0-15.87,8.763-25.53,22.77-25.53z M228.28176,100.552c-6.9,0-10.695,4.278-10.695,16.56c0,11.385,3.105,16.56,10.005,16.56s11.04-4.485,11.04-16.905c0-11.385-3.45-16.215-10.35-16.215z M259.64295,141.4l0-5.865l4.278-1.725l13.938-16.836l-12.834-16.698l-4.002-1.311l0-5.865l20.7-0.345l0,6.21l-3.45,1.173l7.107,9.453l6.762-9.177l-3.726-1.449l0-5.865l19.872-0.345l0,6.21l-4.554,1.38l-12.696,16.077l13.455,17.457l4.83,1.656l0,5.865l-21.39,0l0-5.865l3.174-1.38l-7.59-10.212l-7.728,9.936l4.347,1.656l0,5.865l-20.493,0z M327.22914,141.4l0-5.865l5.175-2.07l0-8.901l-12.627-23.736l-4.485-1.863l0-5.865l19.527-0.345l0,6.21l-3.519,1.449l6.9,14.835l7.314-14.766l-3.795-1.518l0-5.865l18.63-0.345l0,6.21l-4.761,1.863l-12.489,23.667l0,8.97l5.175,2.07l0,5.865l-21.045,0z"/><path fill="#" d=""/></svg>
